<?xml version="1.0" encoding="utf-8" standalone="no"?>
<!DOCTYPE svg PUBLIC "-//W3C//DTD SVG 1.1//EN"
  "http://www.w3.org/Graphics/SVG/1.1/DTD/svg11.dtd">
<svg xmlns:xlink="http://www.w3.org/1999/xlink" width="1058.4pt" height="636.48pt" viewBox="0 0 1058.4 636.48" xmlns="http://www.w3.org/2000/svg" version="1.1">
 <metadata>
  <rdf:RDF xmlns:dc="http://purl.org/dc/elements/1.1/" xmlns:cc="http://creativecommons.org/ns#" xmlns:rdf="http://www.w3.org/1999/02/22-rdf-syntax-ns#">
   <cc:Work>
    <dc:type rdf:resource="http://purl.org/dc/dcmitype/StillImage"/>
    <dc:date>2024-04-29T11:19:01.669150</dc:date>
    <dc:format>image/svg+xml</dc:format>
    <dc:creator>
     <cc:Agent>
      <dc:title>Matplotlib v3.7.1, https://matplotlib.org/</dc:title>
     </cc:Agent>
    </dc:creator>
   </cc:Work>
  </rdf:RDF>
 </metadata>
 <defs>
  <style type="text/css">*{stroke-linejoin: round; stroke-linecap: butt}</style>
 </defs>
 <g id="figure_1">
  <g id="patch_1">
   <path d="M 0 636.48 
L 1058.4 636.48 
L 1058.4 0 
L 0 0 
z
" style="fill: #ffffff"/>
  </g>
  <g id="axes_1">
   <g id="patch_2">
    <path d="M 10.8 294.684 
L 523.8 294.684 
L 523.8 27.42 
L 10.8 27.42 
z
" style="fill: #ffffff"/>
   </g>
   <g id="patch_3">
    <path d="M 34.118182 294.684 
L 65.736055 294.684 
L 65.736055 294.684 
L 34.118182 294.684 
z
" clip-path="url(#p5425bb0f40)" style="fill: #1f77b4"/>
   </g>
   <g id="patch_4">
    <path d="M 73.640524 294.684 
L 105.258398 294.684 
L 105.258398 294.684 
L 73.640524 294.684 
z
" clip-path="url(#p5425bb0f40)" style="fill: #ff7f0e"/>
   </g>
   <g id="patch_5">
    <path d="M 113.162866 294.684 
L 144.78074 294.684 
L 144.78074 294.684 
L 113.162866 294.684 
z
" clip-path="url(#p5425bb0f40)" style="fill: #cd853f"/>
   </g>
   <g id="patch_6">
    <path d="M 152.685208 294.684 
L 184.303082 294.684 
L 184.303082 294.684 
L 152.685208 294.684 
z
" clip-path="url(#p5425bb0f40)" style="fill: #d2691e"/>
   </g>
   <g id="patch_7">
    <path d="M 192.20755 294.684 
L 223.825424 294.684 
L 223.825424 294.684 
L 192.20755 294.684 
z
" clip-path="url(#p5425bb0f40)" style="fill: #f4a460"/>
   </g>
   <g id="patch_8">
    <path d="M 231.729892 294.684 
L 263.347766 294.684 
L 263.347766 294.684 
L 231.729892 294.684 
z
" clip-path="url(#p5425bb0f40)" style="fill: #deb887"/>
   </g>
   <g id="patch_9">
    <path d="M 271.252234 294.684 
L 302.870108 294.684 
L 302.870108 294.684 
L 271.252234 294.684 
z
" clip-path="url(#p5425bb0f40)" style="fill: #90ee90"/>
   </g>
   <g id="patch_10">
    <path d="M 310.774576 294.684 
L 342.39245 294.684 
L 342.39245 294.684 
L 310.774576 294.684 
z
" clip-path="url(#p5425bb0f40)" style="fill: #32cd32"/>
   </g>
   <g id="patch_11">
    <path d="M 350.296918 294.684 
L 381.914792 294.684 
L 381.914792 294.684 
L 350.296918 294.684 
z
" clip-path="url(#p5425bb0f40)" style="fill: #98fb98"/>
   </g>
   <g id="patch_12">
    <path d="M 389.81926 294.684 
L 421.437134 294.684 
L 421.437134 294.684 
L 389.81926 294.684 
z
" clip-path="url(#p5425bb0f40)" style="fill: #228b22"/>
   </g>
   <g id="patch_13">
    <path d="M 429.341602 294.684 
L 460.959476 294.684 
L 460.959476 245.369401 
L 429.341602 245.369401 
z
" clip-path="url(#p5425bb0f40)" style="fill: #f08080"/>
   </g>
   <g id="patch_14">
    <path d="M 468.863945 294.684 
L 500.481818 294.684 
L 500.481818 40.146857 
L 468.863945 40.146857 
z
" clip-path="url(#p5425bb0f40)" style="fill: #cd5c5c"/>
   </g>
   <g id="matplotlib.axis_1">
    <g id="xtick_1">
     <g id="line2d_1">
      <defs>
       <path id="m2b9ebdd63e" d="M 0 0 
L 0 3.5 
" style="stroke: #000000; stroke-width: 0.8"/>
      </defs>
      <g>
       <use xlink:href="#m2b9ebdd63e" x="49.927119" y="294.684" style="stroke: #000000; stroke-width: 0.8"/>
      </g>
     </g>
    </g>
    <g id="xtick_2">
     <g id="line2d_2">
      <g>
       <use xlink:href="#m2b9ebdd63e" x="128.971803" y="294.684" style="stroke: #000000; stroke-width: 0.8"/>
      </g>
     </g>
    </g>
    <g id="xtick_3">
     <g id="line2d_3">
      <g>
       <use xlink:href="#m2b9ebdd63e" x="208.016487" y="294.684" style="stroke: #000000; stroke-width: 0.8"/>
      </g>
     </g>
    </g>
    <g id="xtick_4">
     <g id="line2d_4">
      <g>
       <use xlink:href="#m2b9ebdd63e" x="287.061171" y="294.684" style="stroke: #000000; stroke-width: 0.8"/>
      </g>
     </g>
    </g>
    <g id="xtick_5">
     <g id="line2d_5">
      <g>
       <use xlink:href="#m2b9ebdd63e" x="366.105855" y="294.684" style="stroke: #000000; stroke-width: 0.8"/>
      </g>
     </g>
    </g>
    <g id="xtick_6">
     <g id="line2d_6">
      <g>
       <use xlink:href="#m2b9ebdd63e" x="445.150539" y="294.684" style="stroke: #000000; stroke-width: 0.8"/>
      </g>
     </g>
    </g>
   </g>
   <g id="matplotlib.axis_2"/>
   <g id="line2d_7">
    <path d="M 10.8 292.255906 
L 523.8 292.255906 
" clip-path="url(#p5425bb0f40)" style="fill: none; stroke-dasharray: 5.55,2.4; stroke-dashoffset: 0; stroke: #000000; stroke-width: 1.5"/>
   </g>
   <g id="patch_15">
    <path d="M 10.8 294.684 
L 10.8 27.42 
" style="fill: none; stroke: #000000; stroke-width: 0.8; stroke-linejoin: miter; stroke-linecap: square"/>
   </g>
   <g id="patch_16">
    <path d="M 523.8 294.684 
L 523.8 27.42 
" style="fill: none; stroke: #000000; stroke-width: 0.8; stroke-linejoin: miter; stroke-linecap: square"/>
   </g>
   <g id="patch_17">
    <path d="M 10.8 294.684 
L 523.8 294.684 
" style="fill: none; stroke: #000000; stroke-width: 0.8; stroke-linejoin: miter; stroke-linecap: square"/>
   </g>
   <g id="patch_18">
    <path d="M 10.8 27.42 
L 523.8 27.42 
" style="fill: none; stroke: #000000; stroke-width: 0.8; stroke-linejoin: miter; stroke-linecap: square"/>
   </g>
   <g id="text_1">
    <!-- 0 -->
    <g transform="translate(46.109619 291.770287) scale(0.12 -0.12)">
     <defs>
      <path id="DejaVuSans-30" d="M 2034 4250 
Q 1547 4250 1301 3770 
Q 1056 3291 1056 2328 
Q 1056 1369 1301 889 
Q 1547 409 2034 409 
Q 2525 409 2770 889 
Q 3016 1369 3016 2328 
Q 3016 3291 2770 3770 
Q 2525 4250 2034 4250 
z
M 2034 4750 
Q 2819 4750 3233 4129 
Q 3647 3509 3647 2328 
Q 3647 1150 3233 529 
Q 2819 -91 2034 -91 
Q 1250 -91 836 529 
Q 422 1150 422 2328 
Q 422 3509 836 4129 
Q 1250 4750 2034 4750 
z
" transform="scale(0.015625)"/>
     </defs>
     <use xlink:href="#DejaVuSans-30"/>
    </g>
   </g>
   <g id="text_2">
    <!-- 0 -->
    <g transform="translate(85.631961 291.770287) scale(0.12 -0.12)">
     <use xlink:href="#DejaVuSans-30"/>
    </g>
   </g>
   <g id="text_3">
    <!-- 0 -->
    <g transform="translate(125.154303 291.770287) scale(0.12 -0.12)">
     <use xlink:href="#DejaVuSans-30"/>
    </g>
   </g>
   <g id="text_4">
    <!-- 0 -->
    <g transform="translate(164.676645 291.770287) scale(0.12 -0.12)">
     <use xlink:href="#DejaVuSans-30"/>
    </g>
   </g>
   <g id="text_5">
    <!-- 0 -->
    <g transform="translate(204.198987 291.770287) scale(0.12 -0.12)">
     <use xlink:href="#DejaVuSans-30"/>
    </g>
   </g>
   <g id="text_6">
    <!-- 0 -->
    <g transform="translate(243.721329 291.770287) scale(0.12 -0.12)">
     <use xlink:href="#DejaVuSans-30"/>
    </g>
   </g>
   <g id="text_7">
    <!-- 0 -->
    <g transform="translate(283.243671 291.770287) scale(0.12 -0.12)">
     <use xlink:href="#DejaVuSans-30"/>
    </g>
   </g>
   <g id="text_8">
    <!-- 0 -->
    <g transform="translate(322.766013 291.770287) scale(0.12 -0.12)">
     <use xlink:href="#DejaVuSans-30"/>
    </g>
   </g>
   <g id="text_9">
    <!-- 0 -->
    <g transform="translate(362.288355 291.770287) scale(0.12 -0.12)">
     <use xlink:href="#DejaVuSans-30"/>
    </g>
   </g>
   <g id="text_10">
    <!-- 0 -->
    <g transform="translate(401.810697 291.770287) scale(0.12 -0.12)">
     <use xlink:href="#DejaVuSans-30"/>
    </g>
   </g>
   <g id="text_11">
    <!-- 20.3 -->
    <g transform="translate(431.791164 291.770287) scale(0.12 -0.12)">
     <defs>
      <path id="DejaVuSans-32" d="M 1228 531 
L 3431 531 
L 3431 0 
L 469 0 
L 469 531 
Q 828 903 1448 1529 
Q 2069 2156 2228 2338 
Q 2531 2678 2651 2914 
Q 2772 3150 2772 3378 
Q 2772 3750 2511 3984 
Q 2250 4219 1831 4219 
Q 1534 4219 1204 4116 
Q 875 4013 500 3803 
L 500 4441 
Q 881 4594 1212 4672 
Q 1544 4750 1819 4750 
Q 2544 4750 2975 4387 
Q 3406 4025 3406 3419 
Q 3406 3131 3298 2873 
Q 3191 2616 2906 2266 
Q 2828 2175 2409 1742 
Q 1991 1309 1228 531 
z
" transform="scale(0.015625)"/>
      <path id="DejaVuSans-2e" d="M 684 794 
L 1344 794 
L 1344 0 
L 684 0 
L 684 794 
z
" transform="scale(0.015625)"/>
      <path id="DejaVuSans-33" d="M 2597 2516 
Q 3050 2419 3304 2112 
Q 3559 1806 3559 1356 
Q 3559 666 3084 287 
Q 2609 -91 1734 -91 
Q 1441 -91 1130 -33 
Q 819 25 488 141 
L 488 750 
Q 750 597 1062 519 
Q 1375 441 1716 441 
Q 2309 441 2620 675 
Q 2931 909 2931 1356 
Q 2931 1769 2642 2001 
Q 2353 2234 1838 2234 
L 1294 2234 
L 1294 2753 
L 1863 2753 
Q 2328 2753 2575 2939 
Q 2822 3125 2822 3475 
Q 2822 3834 2567 4026 
Q 2313 4219 1838 4219 
Q 1578 4219 1281 4162 
Q 984 4106 628 3988 
L 628 4550 
Q 988 4650 1302 4700 
Q 1616 4750 1894 4750 
Q 2613 4750 3031 4423 
Q 3450 4097 3450 3541 
Q 3450 3153 3228 2886 
Q 3006 2619 2597 2516 
z
" transform="scale(0.015625)"/>
     </defs>
     <use xlink:href="#DejaVuSans-32"/>
     <use xlink:href="#DejaVuSans-30" x="63.623047"/>
     <use xlink:href="#DejaVuSans-2e" x="127.246094"/>
     <use xlink:href="#DejaVuSans-33" x="159.033203"/>
    </g>
   </g>
   <g id="text_12">
    <!-- 104.8 -->
    <g transform="translate(467.496006 291.770287) scale(0.12 -0.12)">
     <defs>
      <path id="DejaVuSans-31" d="M 794 531 
L 1825 531 
L 1825 4091 
L 703 3866 
L 703 4441 
L 1819 4666 
L 2450 4666 
L 2450 531 
L 3481 531 
L 3481 0 
L 794 0 
L 794 531 
z
" transform="scale(0.015625)"/>
      <path id="DejaVuSans-34" d="M 2419 4116 
L 825 1625 
L 2419 1625 
L 2419 4116 
z
M 2253 4666 
L 3047 4666 
L 3047 1625 
L 3713 1625 
L 3713 1100 
L 3047 1100 
L 3047 0 
L 2419 0 
L 2419 1100 
L 313 1100 
L 313 1709 
L 2253 4666 
z
" transform="scale(0.015625)"/>
      <path id="DejaVuSans-38" d="M 2034 2216 
Q 1584 2216 1326 1975 
Q 1069 1734 1069 1313 
Q 1069 891 1326 650 
Q 1584 409 2034 409 
Q 2484 409 2743 651 
Q 3003 894 3003 1313 
Q 3003 1734 2745 1975 
Q 2488 2216 2034 2216 
z
M 1403 2484 
Q 997 2584 770 2862 
Q 544 3141 544 3541 
Q 544 4100 942 4425 
Q 1341 4750 2034 4750 
Q 2731 4750 3128 4425 
Q 3525 4100 3525 3541 
Q 3525 3141 3298 2862 
Q 3072 2584 2669 2484 
Q 3125 2378 3379 2068 
Q 3634 1759 3634 1313 
Q 3634 634 3220 271 
Q 2806 -91 2034 -91 
Q 1263 -91 848 271 
Q 434 634 434 1313 
Q 434 1759 690 2068 
Q 947 2378 1403 2484 
z
M 1172 3481 
Q 1172 3119 1398 2916 
Q 1625 2713 2034 2713 
Q 2441 2713 2670 2916 
Q 2900 3119 2900 3481 
Q 2900 3844 2670 4047 
Q 2441 4250 2034 4250 
Q 1625 4250 1398 4047 
Q 1172 3844 1172 3481 
z
" transform="scale(0.015625)"/>
     </defs>
     <use xlink:href="#DejaVuSans-31"/>
     <use xlink:href="#DejaVuSans-30" x="63.623047"/>
     <use xlink:href="#DejaVuSans-34" x="127.246094"/>
     <use xlink:href="#DejaVuSans-2e" x="190.869141"/>
     <use xlink:href="#DejaVuSans-38" x="222.65625"/>
    </g>
   </g>
   <g id="text_13">
    <!-- BPKW_BKRW_BSNF_O -->
    <g transform="translate(191.722969 21.42) scale(0.14 -0.14)">
     <defs>
      <path id="DejaVuSans-42" d="M 1259 2228 
L 1259 519 
L 2272 519 
Q 2781 519 3026 730 
Q 3272 941 3272 1375 
Q 3272 1813 3026 2020 
Q 2781 2228 2272 2228 
L 1259 2228 
z
M 1259 4147 
L 1259 2741 
L 2194 2741 
Q 2656 2741 2882 2914 
Q 3109 3088 3109 3444 
Q 3109 3797 2882 3972 
Q 2656 4147 2194 4147 
L 1259 4147 
z
M 628 4666 
L 2241 4666 
Q 2963 4666 3353 4366 
Q 3744 4066 3744 3513 
Q 3744 3084 3544 2831 
Q 3344 2578 2956 2516 
Q 3422 2416 3680 2098 
Q 3938 1781 3938 1306 
Q 3938 681 3513 340 
Q 3088 0 2303 0 
L 628 0 
L 628 4666 
z
" transform="scale(0.015625)"/>
      <path id="DejaVuSans-50" d="M 1259 4147 
L 1259 2394 
L 2053 2394 
Q 2494 2394 2734 2622 
Q 2975 2850 2975 3272 
Q 2975 3691 2734 3919 
Q 2494 4147 2053 4147 
L 1259 4147 
z
M 628 4666 
L 2053 4666 
Q 2838 4666 3239 4311 
Q 3641 3956 3641 3272 
Q 3641 2581 3239 2228 
Q 2838 1875 2053 1875 
L 1259 1875 
L 1259 0 
L 628 0 
L 628 4666 
z
" transform="scale(0.015625)"/>
      <path id="DejaVuSans-4b" d="M 628 4666 
L 1259 4666 
L 1259 2694 
L 3353 4666 
L 4166 4666 
L 1850 2491 
L 4331 0 
L 3500 0 
L 1259 2247 
L 1259 0 
L 628 0 
L 628 4666 
z
" transform="scale(0.015625)"/>
      <path id="DejaVuSans-57" d="M 213 4666 
L 850 4666 
L 1831 722 
L 2809 4666 
L 3519 4666 
L 4500 722 
L 5478 4666 
L 6119 4666 
L 4947 0 
L 4153 0 
L 3169 4050 
L 2175 0 
L 1381 0 
L 213 4666 
z
" transform="scale(0.015625)"/>
      <path id="DejaVuSans-5f" d="M 3263 -1063 
L 3263 -1509 
L -63 -1509 
L -63 -1063 
L 3263 -1063 
z
" transform="scale(0.015625)"/>
      <path id="DejaVuSans-52" d="M 2841 2188 
Q 3044 2119 3236 1894 
Q 3428 1669 3622 1275 
L 4263 0 
L 3584 0 
L 2988 1197 
Q 2756 1666 2539 1819 
Q 2322 1972 1947 1972 
L 1259 1972 
L 1259 0 
L 628 0 
L 628 4666 
L 2053 4666 
Q 2853 4666 3247 4331 
Q 3641 3997 3641 3322 
Q 3641 2881 3436 2590 
Q 3231 2300 2841 2188 
z
M 1259 4147 
L 1259 2491 
L 2053 2491 
Q 2509 2491 2742 2702 
Q 2975 2913 2975 3322 
Q 2975 3731 2742 3939 
Q 2509 4147 2053 4147 
L 1259 4147 
z
" transform="scale(0.015625)"/>
      <path id="DejaVuSans-53" d="M 3425 4513 
L 3425 3897 
Q 3066 4069 2747 4153 
Q 2428 4238 2131 4238 
Q 1616 4238 1336 4038 
Q 1056 3838 1056 3469 
Q 1056 3159 1242 3001 
Q 1428 2844 1947 2747 
L 2328 2669 
Q 3034 2534 3370 2195 
Q 3706 1856 3706 1288 
Q 3706 609 3251 259 
Q 2797 -91 1919 -91 
Q 1588 -91 1214 -16 
Q 841 59 441 206 
L 441 856 
Q 825 641 1194 531 
Q 1563 422 1919 422 
Q 2459 422 2753 634 
Q 3047 847 3047 1241 
Q 3047 1584 2836 1778 
Q 2625 1972 2144 2069 
L 1759 2144 
Q 1053 2284 737 2584 
Q 422 2884 422 3419 
Q 422 4038 858 4394 
Q 1294 4750 2059 4750 
Q 2388 4750 2728 4690 
Q 3069 4631 3425 4513 
z
" transform="scale(0.015625)"/>
      <path id="DejaVuSans-4e" d="M 628 4666 
L 1478 4666 
L 3547 763 
L 3547 4666 
L 4159 4666 
L 4159 0 
L 3309 0 
L 1241 3903 
L 1241 0 
L 628 0 
L 628 4666 
z
" transform="scale(0.015625)"/>
      <path id="DejaVuSans-46" d="M 628 4666 
L 3309 4666 
L 3309 4134 
L 1259 4134 
L 1259 2759 
L 3109 2759 
L 3109 2228 
L 1259 2228 
L 1259 0 
L 628 0 
L 628 4666 
z
" transform="scale(0.015625)"/>
      <path id="DejaVuSans-4f" d="M 2522 4238 
Q 1834 4238 1429 3725 
Q 1025 3213 1025 2328 
Q 1025 1447 1429 934 
Q 1834 422 2522 422 
Q 3209 422 3611 934 
Q 4013 1447 4013 2328 
Q 4013 3213 3611 3725 
Q 3209 4238 2522 4238 
z
M 2522 4750 
Q 3503 4750 4090 4092 
Q 4678 3434 4678 2328 
Q 4678 1225 4090 567 
Q 3503 -91 2522 -91 
Q 1538 -91 948 565 
Q 359 1222 359 2328 
Q 359 3434 948 4092 
Q 1538 4750 2522 4750 
z
" transform="scale(0.015625)"/>
     </defs>
     <use xlink:href="#DejaVuSans-42"/>
     <use xlink:href="#DejaVuSans-50" x="68.603516"/>
     <use xlink:href="#DejaVuSans-4b" x="128.90625"/>
     <use xlink:href="#DejaVuSans-57" x="190.857422"/>
     <use xlink:href="#DejaVuSans-5f" x="289.734375"/>
     <use xlink:href="#DejaVuSans-42" x="339.734375"/>
     <use xlink:href="#DejaVuSans-4b" x="408.337891"/>
     <use xlink:href="#DejaVuSans-52" x="473.914062"/>
     <use xlink:href="#DejaVuSans-57" x="539.396484"/>
     <use xlink:href="#DejaVuSans-5f" x="638.273438"/>
     <use xlink:href="#DejaVuSans-42" x="688.273438"/>
     <use xlink:href="#DejaVuSans-53" x="755.126953"/>
     <use xlink:href="#DejaVuSans-4e" x="818.603516"/>
     <use xlink:href="#DejaVuSans-46" x="893.408203"/>
     <use xlink:href="#DejaVuSans-5f" x="950.927734"/>
     <use xlink:href="#DejaVuSans-4f" x="1000.927734"/>
    </g>
   </g>
  </g>
  <g id="axes_2">
   <g id="patch_19">
    <path d="M 534.6 294.684 
L 1047.6 294.684 
L 1047.6 27.42 
L 534.6 27.42 
z
" style="fill: #ffffff"/>
   </g>
   <g id="patch_20">
    <path d="M 557.918182 294.684 
L 589.536055 294.684 
L 589.536055 294.684 
L 557.918182 294.684 
z
" clip-path="url(#pb24f31781d)" style="fill: #1f77b4"/>
   </g>
   <g id="patch_21">
    <path d="M 597.440524 294.684 
L 629.058398 294.684 
L 629.058398 294.684 
L 597.440524 294.684 
z
" clip-path="url(#pb24f31781d)" style="fill: #ff7f0e"/>
   </g>
   <g id="patch_22">
    <path d="M 636.962866 294.684 
L 668.58074 294.684 
L 668.58074 294.684 
L 636.962866 294.684 
z
" clip-path="url(#pb24f31781d)" style="fill: #cd853f"/>
   </g>
   <g id="patch_23">
    <path d="M 676.485208 294.684 
L 708.103082 294.684 
L 708.103082 294.684 
L 676.485208 294.684 
z
" clip-path="url(#pb24f31781d)" style="fill: #d2691e"/>
   </g>
   <g id="patch_24">
    <path d="M 716.00755 294.684 
L 747.625424 294.684 
L 747.625424 294.684 
L 716.00755 294.684 
z
" clip-path="url(#pb24f31781d)" style="fill: #f4a460"/>
   </g>
   <g id="patch_25">
    <path d="M 755.529892 294.684 
L 787.147766 294.684 
L 787.147766 294.684 
L 755.529892 294.684 
z
" clip-path="url(#pb24f31781d)" style="fill: #deb887"/>
   </g>
   <g id="patch_26">
    <path d="M 795.052234 294.684 
L 826.670108 294.684 
L 826.670108 294.684 
L 795.052234 294.684 
z
" clip-path="url(#pb24f31781d)" style="fill: #90ee90"/>
   </g>
   <g id="patch_27">
    <path d="M 834.574576 294.684 
L 866.19245 294.684 
L 866.19245 294.684 
L 834.574576 294.684 
z
" clip-path="url(#pb24f31781d)" style="fill: #32cd32"/>
   </g>
   <g id="patch_28">
    <path d="M 874.096918 294.684 
L 905.714792 294.684 
L 905.714792 294.684 
L 874.096918 294.684 
z
" clip-path="url(#pb24f31781d)" style="fill: #98fb98"/>
   </g>
   <g id="patch_29">
    <path d="M 913.61926 294.684 
L 945.237134 294.684 
L 945.237134 294.684 
L 913.61926 294.684 
z
" clip-path="url(#pb24f31781d)" style="fill: #228b22"/>
   </g>
   <g id="patch_30">
    <path d="M 953.141602 294.684 
L 984.759476 294.684 
L 984.759476 228.000849 
L 953.141602 228.000849 
z
" clip-path="url(#pb24f31781d)" style="fill: #f08080"/>
   </g>
   <g id="patch_31">
    <path d="M 992.663945 294.684 
L 1024.281818 294.684 
L 1024.281818 40.146857 
L 992.663945 40.146857 
z
" clip-path="url(#pb24f31781d)" style="fill: #cd5c5c"/>
   </g>
   <g id="matplotlib.axis_3">
    <g id="xtick_7">
     <g id="line2d_8">
      <g>
       <use xlink:href="#m2b9ebdd63e" x="573.727119" y="294.684" style="stroke: #000000; stroke-width: 0.8"/>
      </g>
     </g>
    </g>
    <g id="xtick_8">
     <g id="line2d_9">
      <g>
       <use xlink:href="#m2b9ebdd63e" x="652.771803" y="294.684" style="stroke: #000000; stroke-width: 0.8"/>
      </g>
     </g>
    </g>
    <g id="xtick_9">
     <g id="line2d_10">
      <g>
       <use xlink:href="#m2b9ebdd63e" x="731.816487" y="294.684" style="stroke: #000000; stroke-width: 0.8"/>
      </g>
     </g>
    </g>
    <g id="xtick_10">
     <g id="line2d_11">
      <g>
       <use xlink:href="#m2b9ebdd63e" x="810.861171" y="294.684" style="stroke: #000000; stroke-width: 0.8"/>
      </g>
     </g>
    </g>
    <g id="xtick_11">
     <g id="line2d_12">
      <g>
       <use xlink:href="#m2b9ebdd63e" x="889.905855" y="294.684" style="stroke: #000000; stroke-width: 0.8"/>
      </g>
     </g>
    </g>
    <g id="xtick_12">
     <g id="line2d_13">
      <g>
       <use xlink:href="#m2b9ebdd63e" x="968.950539" y="294.684" style="stroke: #000000; stroke-width: 0.8"/>
      </g>
     </g>
    </g>
   </g>
   <g id="matplotlib.axis_4"/>
   <g id="line2d_14">
    <path d="M 534.6 291.54892 
L 1047.6 291.54892 
" clip-path="url(#pb24f31781d)" style="fill: none; stroke-dasharray: 5.55,2.4; stroke-dashoffset: 0; stroke: #000000; stroke-width: 1.5"/>
   </g>
   <g id="patch_32">
    <path d="M 534.6 294.684 
L 534.6 27.42 
" style="fill: none; stroke: #000000; stroke-width: 0.8; stroke-linejoin: miter; stroke-linecap: square"/>
   </g>
   <g id="patch_33">
    <path d="M 1047.6 294.684 
L 1047.6 27.42 
" style="fill: none; stroke: #000000; stroke-width: 0.8; stroke-linejoin: miter; stroke-linecap: square"/>
   </g>
   <g id="patch_34">
    <path d="M 534.6 294.684 
L 1047.6 294.684 
" style="fill: none; stroke: #000000; stroke-width: 0.8; stroke-linejoin: miter; stroke-linecap: square"/>
   </g>
   <g id="patch_35">
    <path d="M 534.6 27.42 
L 1047.6 27.42 
" style="fill: none; stroke: #000000; stroke-width: 0.8; stroke-linejoin: miter; stroke-linecap: square"/>
   </g>
   <g id="text_14">
    <!-- 0 -->
    <g transform="translate(569.909619 290.921904) scale(0.12 -0.12)">
     <use xlink:href="#DejaVuSans-30"/>
    </g>
   </g>
   <g id="text_15">
    <!-- 0 -->
    <g transform="translate(609.431961 290.921904) scale(0.12 -0.12)">
     <use xlink:href="#DejaVuSans-30"/>
    </g>
   </g>
   <g id="text_16">
    <!-- 0 -->
    <g transform="translate(648.954303 290.921904) scale(0.12 -0.12)">
     <use xlink:href="#DejaVuSans-30"/>
    </g>
   </g>
   <g id="text_17">
    <!-- 0 -->
    <g transform="translate(688.476645 290.921904) scale(0.12 -0.12)">
     <use xlink:href="#DejaVuSans-30"/>
    </g>
   </g>
   <g id="text_18">
    <!-- 0 -->
    <g transform="translate(727.998987 290.921904) scale(0.12 -0.12)">
     <use xlink:href="#DejaVuSans-30"/>
    </g>
   </g>
   <g id="text_19">
    <!-- 0 -->
    <g transform="translate(767.521329 290.921904) scale(0.12 -0.12)">
     <use xlink:href="#DejaVuSans-30"/>
    </g>
   </g>
   <g id="text_20">
    <!-- 0 -->
    <g transform="translate(807.043671 290.921904) scale(0.12 -0.12)">
     <use xlink:href="#DejaVuSans-30"/>
    </g>
   </g>
   <g id="text_21">
    <!-- 0 -->
    <g transform="translate(846.566013 290.921904) scale(0.12 -0.12)">
     <use xlink:href="#DejaVuSans-30"/>
    </g>
   </g>
   <g id="text_22">
    <!-- 0 -->
    <g transform="translate(886.088355 290.921904) scale(0.12 -0.12)">
     <use xlink:href="#DejaVuSans-30"/>
    </g>
   </g>
   <g id="text_23">
    <!-- 0 -->
    <g transform="translate(925.610697 290.921904) scale(0.12 -0.12)">
     <use xlink:href="#DejaVuSans-30"/>
    </g>
   </g>
   <g id="text_24">
    <!-- 21.3 -->
    <g transform="translate(955.591164 290.921904) scale(0.12 -0.12)">
     <use xlink:href="#DejaVuSans-32"/>
     <use xlink:href="#DejaVuSans-31" x="63.623047"/>
     <use xlink:href="#DejaVuSans-2e" x="127.246094"/>
     <use xlink:href="#DejaVuSans-33" x="159.033203"/>
    </g>
   </g>
   <g id="text_25">
    <!-- 81.2 -->
    <g transform="translate(995.113506 290.921904) scale(0.12 -0.12)">
     <use xlink:href="#DejaVuSans-38"/>
     <use xlink:href="#DejaVuSans-31" x="63.623047"/>
     <use xlink:href="#DejaVuSans-2e" x="127.246094"/>
     <use xlink:href="#DejaVuSans-32" x="159.033203"/>
    </g>
   </g>
   <g id="text_26">
    <!-- BBOS_BWIN_BTG -->
    <g transform="translate(731.388906 21.42) scale(0.14 -0.14)">
     <defs>
      <path id="DejaVuSans-49" d="M 628 4666 
L 1259 4666 
L 1259 0 
L 628 0 
L 628 4666 
z
" transform="scale(0.015625)"/>
      <path id="DejaVuSans-54" d="M -19 4666 
L 3928 4666 
L 3928 4134 
L 2272 4134 
L 2272 0 
L 1638 0 
L 1638 4134 
L -19 4134 
L -19 4666 
z
" transform="scale(0.015625)"/>
      <path id="DejaVuSans-47" d="M 3809 666 
L 3809 1919 
L 2778 1919 
L 2778 2438 
L 4434 2438 
L 4434 434 
Q 4069 175 3628 42 
Q 3188 -91 2688 -91 
Q 1594 -91 976 548 
Q 359 1188 359 2328 
Q 359 3472 976 4111 
Q 1594 4750 2688 4750 
Q 3144 4750 3555 4637 
Q 3966 4525 4313 4306 
L 4313 3634 
Q 3963 3931 3569 4081 
Q 3175 4231 2741 4231 
Q 1884 4231 1454 3753 
Q 1025 3275 1025 2328 
Q 1025 1384 1454 906 
Q 1884 428 2741 428 
Q 3075 428 3337 486 
Q 3600 544 3809 666 
z
" transform="scale(0.015625)"/>
     </defs>
     <use xlink:href="#DejaVuSans-42"/>
     <use xlink:href="#DejaVuSans-42" x="68.603516"/>
     <use xlink:href="#DejaVuSans-4f" x="135.457031"/>
     <use xlink:href="#DejaVuSans-53" x="214.167969"/>
     <use xlink:href="#DejaVuSans-5f" x="277.644531"/>
     <use xlink:href="#DejaVuSans-42" x="327.644531"/>
     <use xlink:href="#DejaVuSans-57" x="392.623047"/>
     <use xlink:href="#DejaVuSans-49" x="491.5"/>
     <use xlink:href="#DejaVuSans-4e" x="520.992188"/>
     <use xlink:href="#DejaVuSans-5f" x="595.796875"/>
     <use xlink:href="#DejaVuSans-42" x="645.796875"/>
     <use xlink:href="#DejaVuSans-54" x="714.400391"/>
     <use xlink:href="#DejaVuSans-47" x="775.484375"/>
    </g>
   </g>
  </g>
  <g id="axes_3">
   <g id="patch_36">
    <path d="M 10.8 593.048 
L 523.8 593.048 
L 523.8 325.784 
L 10.8 325.784 
z
" style="fill: #ffffff"/>
   </g>
   <g id="patch_37">
    <path d="M 34.118182 593.048 
L 65.736055 593.048 
L 65.736055 593.048 
L 34.118182 593.048 
z
" clip-path="url(#pfc11bb9ca6)" style="fill: #1f77b4"/>
   </g>
   <g id="patch_38">
    <path d="M 73.640524 593.048 
L 105.258398 593.048 
L 105.258398 593.048 
L 73.640524 593.048 
z
" clip-path="url(#pfc11bb9ca6)" style="fill: #ff7f0e"/>
   </g>
   <g id="patch_39">
    <path d="M 113.162866 593.048 
L 144.78074 593.048 
L 144.78074 593.048 
L 113.162866 593.048 
z
" clip-path="url(#pfc11bb9ca6)" style="fill: #cd853f"/>
   </g>
   <g id="patch_40">
    <path d="M 152.685208 593.048 
L 184.303082 593.048 
L 184.303082 593.048 
L 152.685208 593.048 
z
" clip-path="url(#pfc11bb9ca6)" style="fill: #d2691e"/>
   </g>
   <g id="patch_41">
    <path d="M 192.20755 593.048 
L 223.825424 593.048 
L 223.825424 593.048 
L 192.20755 593.048 
z
" clip-path="url(#pfc11bb9ca6)" style="fill: #f4a460"/>
   </g>
   <g id="patch_42">
    <path d="M 231.729892 593.048 
L 263.347766 593.048 
L 263.347766 593.048 
L 231.729892 593.048 
z
" clip-path="url(#pfc11bb9ca6)" style="fill: #deb887"/>
   </g>
   <g id="patch_43">
    <path d="M 271.252234 593.048 
L 302.870108 593.048 
L 302.870108 593.048 
L 271.252234 593.048 
z
" clip-path="url(#pfc11bb9ca6)" style="fill: #90ee90"/>
   </g>
   <g id="patch_44">
    <path d="M 310.774576 593.048 
L 342.39245 593.048 
L 342.39245 593.048 
L 310.774576 593.048 
z
" clip-path="url(#pfc11bb9ca6)" style="fill: #32cd32"/>
   </g>
   <g id="patch_45">
    <path d="M 350.296918 593.048 
L 381.914792 593.048 
L 381.914792 593.048 
L 350.296918 593.048 
z
" clip-path="url(#pfc11bb9ca6)" style="fill: #98fb98"/>
   </g>
   <g id="patch_46">
    <path d="M 389.81926 593.048 
L 421.437134 593.048 
L 421.437134 593.048 
L 389.81926 593.048 
z
" clip-path="url(#pfc11bb9ca6)" style="fill: #228b22"/>
   </g>
   <g id="patch_47">
    <path d="M 429.341602 593.048 
L 460.959476 593.048 
L 460.959476 536.469364 
L 429.341602 536.469364 
z
" clip-path="url(#pfc11bb9ca6)" style="fill: #f08080"/>
   </g>
   <g id="patch_48">
    <path d="M 468.863945 593.048 
L 500.481818 593.048 
L 500.481818 338.510857 
L 468.863945 338.510857 
z
" clip-path="url(#pfc11bb9ca6)" style="fill: #cd5c5c"/>
   </g>
   <g id="matplotlib.axis_5">
    <g id="xtick_13">
     <g id="line2d_15">
      <g>
       <use xlink:href="#m2b9ebdd63e" x="49.927119" y="593.048" style="stroke: #000000; stroke-width: 0.8"/>
      </g>
     </g>
     <g id="text_27">
      <!-- ineq -->
      <g transform="translate(36.956806 609.166125) scale(0.12 -0.12)">
       <defs>
        <path id="DejaVuSans-69" d="M 603 3500 
L 1178 3500 
L 1178 0 
L 603 0 
L 603 3500 
z
M 603 4863 
L 1178 4863 
L 1178 4134 
L 603 4134 
L 603 4863 
z
" transform="scale(0.015625)"/>
        <path id="DejaVuSans-6e" d="M 3513 2113 
L 3513 0 
L 2938 0 
L 2938 2094 
Q 2938 2591 2744 2837 
Q 2550 3084 2163 3084 
Q 1697 3084 1428 2787 
Q 1159 2491 1159 1978 
L 1159 0 
L 581 0 
L 581 3500 
L 1159 3500 
L 1159 2956 
Q 1366 3272 1645 3428 
Q 1925 3584 2291 3584 
Q 2894 3584 3203 3211 
Q 3513 2838 3513 2113 
z
" transform="scale(0.015625)"/>
        <path id="DejaVuSans-65" d="M 3597 1894 
L 3597 1613 
L 953 1613 
Q 991 1019 1311 708 
Q 1631 397 2203 397 
Q 2534 397 2845 478 
Q 3156 559 3463 722 
L 3463 178 
Q 3153 47 2828 -22 
Q 2503 -91 2169 -91 
Q 1331 -91 842 396 
Q 353 884 353 1716 
Q 353 2575 817 3079 
Q 1281 3584 2069 3584 
Q 2775 3584 3186 3129 
Q 3597 2675 3597 1894 
z
M 3022 2063 
Q 3016 2534 2758 2815 
Q 2500 3097 2075 3097 
Q 1594 3097 1305 2825 
Q 1016 2553 972 2059 
L 3022 2063 
z
" transform="scale(0.015625)"/>
        <path id="DejaVuSans-71" d="M 947 1747 
Q 947 1113 1208 752 
Q 1469 391 1925 391 
Q 2381 391 2643 752 
Q 2906 1113 2906 1747 
Q 2906 2381 2643 2742 
Q 2381 3103 1925 3103 
Q 1469 3103 1208 2742 
Q 947 2381 947 1747 
z
M 2906 525 
Q 2725 213 2448 61 
Q 2172 -91 1784 -91 
Q 1150 -91 751 415 
Q 353 922 353 1747 
Q 353 2572 751 3078 
Q 1150 3584 1784 3584 
Q 2172 3584 2448 3432 
Q 2725 3281 2906 2969 
L 2906 3500 
L 3481 3500 
L 3481 -1331 
L 2906 -1331 
L 2906 525 
z
" transform="scale(0.015625)"/>
       </defs>
       <use xlink:href="#DejaVuSans-69"/>
       <use xlink:href="#DejaVuSans-6e" x="27.783203"/>
       <use xlink:href="#DejaVuSans-65" x="91.162109"/>
       <use xlink:href="#DejaVuSans-71" x="152.685547"/>
      </g>
     </g>
    </g>
    <g id="xtick_14">
     <g id="line2d_16">
      <g>
       <use xlink:href="#m2b9ebdd63e" x="89.449461" y="593.048" style="stroke: #000000; stroke-width: 0.8"/>
      </g>
     </g>
     <g id="text_28">
      <!-- RENS -->
      <g transform="translate(73.191336 609.166125) scale(0.12 -0.12)">
       <defs>
        <path id="DejaVuSans-45" d="M 628 4666 
L 3578 4666 
L 3578 4134 
L 1259 4134 
L 1259 2753 
L 3481 2753 
L 3481 2222 
L 1259 2222 
L 1259 531 
L 3634 531 
L 3634 0 
L 628 0 
L 628 4666 
z
" transform="scale(0.015625)"/>
       </defs>
       <use xlink:href="#DejaVuSans-52"/>
       <use xlink:href="#DejaVuSans-45" x="69.482422"/>
       <use xlink:href="#DejaVuSans-4e" x="132.666016"/>
       <use xlink:href="#DejaVuSans-53" x="207.470703"/>
      </g>
     </g>
    </g>
    <g id="xtick_15">
     <g id="line2d_17">
      <g>
       <use xlink:href="#m2b9ebdd63e" x="128.971803" y="593.048" style="stroke: #000000; stroke-width: 0.8"/>
      </g>
     </g>
     <g id="text_29">
      <!-- sheaf  -->
      <g transform="translate(110.655865 609.166125) scale(0.12 -0.12)">
       <defs>
        <path id="DejaVuSans-73" d="M 2834 3397 
L 2834 2853 
Q 2591 2978 2328 3040 
Q 2066 3103 1784 3103 
Q 1356 3103 1142 2972 
Q 928 2841 928 2578 
Q 928 2378 1081 2264 
Q 1234 2150 1697 2047 
L 1894 2003 
Q 2506 1872 2764 1633 
Q 3022 1394 3022 966 
Q 3022 478 2636 193 
Q 2250 -91 1575 -91 
Q 1294 -91 989 -36 
Q 684 19 347 128 
L 347 722 
Q 666 556 975 473 
Q 1284 391 1588 391 
Q 1994 391 2212 530 
Q 2431 669 2431 922 
Q 2431 1156 2273 1281 
Q 2116 1406 1581 1522 
L 1381 1569 
Q 847 1681 609 1914 
Q 372 2147 372 2553 
Q 372 3047 722 3315 
Q 1072 3584 1716 3584 
Q 2034 3584 2315 3537 
Q 2597 3491 2834 3397 
z
" transform="scale(0.015625)"/>
        <path id="DejaVuSans-68" d="M 3513 2113 
L 3513 0 
L 2938 0 
L 2938 2094 
Q 2938 2591 2744 2837 
Q 2550 3084 2163 3084 
Q 1697 3084 1428 2787 
Q 1159 2491 1159 1978 
L 1159 0 
L 581 0 
L 581 4863 
L 1159 4863 
L 1159 2956 
Q 1366 3272 1645 3428 
Q 1925 3584 2291 3584 
Q 2894 3584 3203 3211 
Q 3513 2838 3513 2113 
z
" transform="scale(0.015625)"/>
        <path id="DejaVuSans-61" d="M 2194 1759 
Q 1497 1759 1228 1600 
Q 959 1441 959 1056 
Q 959 750 1161 570 
Q 1363 391 1709 391 
Q 2188 391 2477 730 
Q 2766 1069 2766 1631 
L 2766 1759 
L 2194 1759 
z
M 3341 1997 
L 3341 0 
L 2766 0 
L 2766 531 
Q 2569 213 2275 61 
Q 1981 -91 1556 -91 
Q 1019 -91 701 211 
Q 384 513 384 1019 
Q 384 1609 779 1909 
Q 1175 2209 1959 2209 
L 2766 2209 
L 2766 2266 
Q 2766 2663 2505 2880 
Q 2244 3097 1772 3097 
Q 1472 3097 1187 3025 
Q 903 2953 641 2809 
L 641 3341 
Q 956 3463 1253 3523 
Q 1550 3584 1831 3584 
Q 2591 3584 2966 3190 
Q 3341 2797 3341 1997 
z
" transform="scale(0.015625)"/>
        <path id="DejaVuSans-66" d="M 2375 4863 
L 2375 4384 
L 1825 4384 
Q 1516 4384 1395 4259 
Q 1275 4134 1275 3809 
L 1275 3500 
L 2222 3500 
L 2222 3053 
L 1275 3053 
L 1275 0 
L 697 0 
L 697 3053 
L 147 3053 
L 147 3500 
L 697 3500 
L 697 3744 
Q 697 4328 969 4595 
Q 1241 4863 1831 4863 
L 2375 4863 
z
" transform="scale(0.015625)"/>
        <path id="DejaVuSans-20" transform="scale(0.015625)"/>
       </defs>
       <use xlink:href="#DejaVuSans-73"/>
       <use xlink:href="#DejaVuSans-68" x="52.099609"/>
       <use xlink:href="#DejaVuSans-65" x="115.478516"/>
       <use xlink:href="#DejaVuSans-61" x="177.001953"/>
       <use xlink:href="#DejaVuSans-66" x="238.28125"/>
       <use xlink:href="#DejaVuSans-20" x="273.486328"/>
      </g>
      <!--  0.9 -->
      <g transform="translate(117.523053 622.6035) scale(0.12 -0.12)">
       <defs>
        <path id="DejaVuSans-39" d="M 703 97 
L 703 672 
Q 941 559 1184 500 
Q 1428 441 1663 441 
Q 2288 441 2617 861 
Q 2947 1281 2994 2138 
Q 2813 1869 2534 1725 
Q 2256 1581 1919 1581 
Q 1219 1581 811 2004 
Q 403 2428 403 3163 
Q 403 3881 828 4315 
Q 1253 4750 1959 4750 
Q 2769 4750 3195 4129 
Q 3622 3509 3622 2328 
Q 3622 1225 3098 567 
Q 2575 -91 1691 -91 
Q 1453 -91 1209 -44 
Q 966 3 703 97 
z
M 1959 2075 
Q 2384 2075 2632 2365 
Q 2881 2656 2881 3163 
Q 2881 3666 2632 3958 
Q 2384 4250 1959 4250 
Q 1534 4250 1286 3958 
Q 1038 3666 1038 3163 
Q 1038 2656 1286 2365 
Q 1534 2075 1959 2075 
z
" transform="scale(0.015625)"/>
       </defs>
       <use xlink:href="#DejaVuSans-20"/>
       <use xlink:href="#DejaVuSans-30" x="31.787109"/>
       <use xlink:href="#DejaVuSans-2e" x="95.410156"/>
       <use xlink:href="#DejaVuSans-39" x="127.197266"/>
      </g>
     </g>
    </g>
    <g id="xtick_16">
     <g id="line2d_18">
      <g>
       <use xlink:href="#m2b9ebdd63e" x="168.494145" y="593.048" style="stroke: #000000; stroke-width: 0.8"/>
      </g>
     </g>
     <g id="text_30">
      <!-- slack  -->
      <g transform="translate(151.344457 609.166125) scale(0.12 -0.12)">
       <defs>
        <path id="DejaVuSans-6c" d="M 603 4863 
L 1178 4863 
L 1178 0 
L 603 0 
L 603 4863 
z
" transform="scale(0.015625)"/>
        <path id="DejaVuSans-63" d="M 3122 3366 
L 3122 2828 
Q 2878 2963 2633 3030 
Q 2388 3097 2138 3097 
Q 1578 3097 1268 2742 
Q 959 2388 959 1747 
Q 959 1106 1268 751 
Q 1578 397 2138 397 
Q 2388 397 2633 464 
Q 2878 531 3122 666 
L 3122 134 
Q 2881 22 2623 -34 
Q 2366 -91 2075 -91 
Q 1284 -91 818 406 
Q 353 903 353 1747 
Q 353 2603 823 3093 
Q 1294 3584 2113 3584 
Q 2378 3584 2631 3529 
Q 2884 3475 3122 3366 
z
" transform="scale(0.015625)"/>
        <path id="DejaVuSans-6b" d="M 581 4863 
L 1159 4863 
L 1159 1991 
L 2875 3500 
L 3609 3500 
L 1753 1863 
L 3688 0 
L 2938 0 
L 1159 1709 
L 1159 0 
L 581 0 
L 581 4863 
z
" transform="scale(0.015625)"/>
       </defs>
       <use xlink:href="#DejaVuSans-73"/>
       <use xlink:href="#DejaVuSans-6c" x="52.099609"/>
       <use xlink:href="#DejaVuSans-61" x="79.882812"/>
       <use xlink:href="#DejaVuSans-63" x="141.162109"/>
       <use xlink:href="#DejaVuSans-6b" x="196.142578"/>
       <use xlink:href="#DejaVuSans-20" x="254.052734"/>
      </g>
      <!--  0.9 -->
      <g transform="translate(157.045395 622.6035) scale(0.12 -0.12)">
       <use xlink:href="#DejaVuSans-20"/>
       <use xlink:href="#DejaVuSans-30" x="31.787109"/>
       <use xlink:href="#DejaVuSans-2e" x="95.410156"/>
       <use xlink:href="#DejaVuSans-39" x="127.197266"/>
      </g>
     </g>
    </g>
    <g id="xtick_17">
     <g id="line2d_19">
      <g>
       <use xlink:href="#m2b9ebdd63e" x="208.016487" y="593.048" style="stroke: #000000; stroke-width: 0.8"/>
      </g>
     </g>
     <g id="text_31">
      <!-- rb -->
      <g transform="translate(201.740862 609.166125) scale(0.12 -0.12)">
       <defs>
        <path id="DejaVuSans-72" d="M 2631 2963 
Q 2534 3019 2420 3045 
Q 2306 3072 2169 3072 
Q 1681 3072 1420 2755 
Q 1159 2438 1159 1844 
L 1159 0 
L 581 0 
L 581 3500 
L 1159 3500 
L 1159 2956 
Q 1341 3275 1631 3429 
Q 1922 3584 2338 3584 
Q 2397 3584 2469 3576 
Q 2541 3569 2628 3553 
L 2631 2963 
z
" transform="scale(0.015625)"/>
        <path id="DejaVuSans-62" d="M 3116 1747 
Q 3116 2381 2855 2742 
Q 2594 3103 2138 3103 
Q 1681 3103 1420 2742 
Q 1159 2381 1159 1747 
Q 1159 1113 1420 752 
Q 1681 391 2138 391 
Q 2594 391 2855 752 
Q 3116 1113 3116 1747 
z
M 1159 2969 
Q 1341 3281 1617 3432 
Q 1894 3584 2278 3584 
Q 2916 3584 3314 3078 
Q 3713 2572 3713 1747 
Q 3713 922 3314 415 
Q 2916 -91 2278 -91 
Q 1894 -91 1617 61 
Q 1341 213 1159 525 
L 1159 0 
L 581 0 
L 581 4863 
L 1159 4863 
L 1159 2969 
z
" transform="scale(0.015625)"/>
       </defs>
       <use xlink:href="#DejaVuSans-72"/>
       <use xlink:href="#DejaVuSans-62" x="41.113281"/>
      </g>
      <!--  0.9 -->
      <g transform="translate(196.567737 622.6035) scale(0.12 -0.12)">
       <use xlink:href="#DejaVuSans-20"/>
       <use xlink:href="#DejaVuSans-30" x="31.787109"/>
       <use xlink:href="#DejaVuSans-2e" x="95.410156"/>
       <use xlink:href="#DejaVuSans-39" x="127.197266"/>
      </g>
     </g>
    </g>
    <g id="xtick_18">
     <g id="line2d_20">
      <g>
       <use xlink:href="#m2b9ebdd63e" x="247.538829" y="593.048" style="stroke: #000000; stroke-width: 0.8"/>
      </g>
     </g>
     <g id="text_32">
      <!-- rw  -->
      <g transform="translate(238.258516 609.166125) scale(0.12 -0.12)">
       <defs>
        <path id="DejaVuSans-77" d="M 269 3500 
L 844 3500 
L 1563 769 
L 2278 3500 
L 2956 3500 
L 3675 769 
L 4391 3500 
L 4966 3500 
L 4050 0 
L 3372 0 
L 2619 2869 
L 1863 0 
L 1184 0 
L 269 3500 
z
" transform="scale(0.015625)"/>
       </defs>
       <use xlink:href="#DejaVuSans-72"/>
       <use xlink:href="#DejaVuSans-77" x="41.113281"/>
       <use xlink:href="#DejaVuSans-20" x="122.900391"/>
      </g>
      <!--  0.9 -->
      <g transform="translate(236.090079 622.6035) scale(0.12 -0.12)">
       <use xlink:href="#DejaVuSans-20"/>
       <use xlink:href="#DejaVuSans-30" x="31.787109"/>
       <use xlink:href="#DejaVuSans-2e" x="95.410156"/>
       <use xlink:href="#DejaVuSans-39" x="127.197266"/>
      </g>
     </g>
    </g>
    <g id="xtick_19">
     <g id="line2d_21">
      <g>
       <use xlink:href="#m2b9ebdd63e" x="287.061171" y="593.048" style="stroke: #000000; stroke-width: 0.8"/>
      </g>
     </g>
     <g id="text_33">
      <!-- sheaf  -->
      <g transform="translate(268.745234 609.166125) scale(0.12 -0.12)">
       <use xlink:href="#DejaVuSans-73"/>
       <use xlink:href="#DejaVuSans-68" x="52.099609"/>
       <use xlink:href="#DejaVuSans-65" x="115.478516"/>
       <use xlink:href="#DejaVuSans-61" x="177.001953"/>
       <use xlink:href="#DejaVuSans-66" x="238.28125"/>
       <use xlink:href="#DejaVuSans-20" x="273.486328"/>
      </g>
      <!--  0.6 -->
      <g transform="translate(275.612421 622.6035) scale(0.12 -0.12)">
       <defs>
        <path id="DejaVuSans-36" d="M 2113 2584 
Q 1688 2584 1439 2293 
Q 1191 2003 1191 1497 
Q 1191 994 1439 701 
Q 1688 409 2113 409 
Q 2538 409 2786 701 
Q 3034 994 3034 1497 
Q 3034 2003 2786 2293 
Q 2538 2584 2113 2584 
z
M 3366 4563 
L 3366 3988 
Q 3128 4100 2886 4159 
Q 2644 4219 2406 4219 
Q 1781 4219 1451 3797 
Q 1122 3375 1075 2522 
Q 1259 2794 1537 2939 
Q 1816 3084 2150 3084 
Q 2853 3084 3261 2657 
Q 3669 2231 3669 1497 
Q 3669 778 3244 343 
Q 2819 -91 2113 -91 
Q 1303 -91 875 529 
Q 447 1150 447 2328 
Q 447 3434 972 4092 
Q 1497 4750 2381 4750 
Q 2619 4750 2861 4703 
Q 3103 4656 3366 4563 
z
" transform="scale(0.015625)"/>
       </defs>
       <use xlink:href="#DejaVuSans-20"/>
       <use xlink:href="#DejaVuSans-30" x="31.787109"/>
       <use xlink:href="#DejaVuSans-2e" x="95.410156"/>
       <use xlink:href="#DejaVuSans-36" x="127.197266"/>
      </g>
     </g>
    </g>
    <g id="xtick_20">
     <g id="line2d_22">
      <g>
       <use xlink:href="#m2b9ebdd63e" x="326.583513" y="593.048" style="stroke: #000000; stroke-width: 0.8"/>
      </g>
     </g>
     <g id="text_34">
      <!-- slack  -->
      <g transform="translate(309.433826 609.166125) scale(0.12 -0.12)">
       <use xlink:href="#DejaVuSans-73"/>
       <use xlink:href="#DejaVuSans-6c" x="52.099609"/>
       <use xlink:href="#DejaVuSans-61" x="79.882812"/>
       <use xlink:href="#DejaVuSans-63" x="141.162109"/>
       <use xlink:href="#DejaVuSans-6b" x="196.142578"/>
       <use xlink:href="#DejaVuSans-20" x="254.052734"/>
      </g>
      <!--  0.6 -->
      <g transform="translate(315.134763 622.6035) scale(0.12 -0.12)">
       <use xlink:href="#DejaVuSans-20"/>
       <use xlink:href="#DejaVuSans-30" x="31.787109"/>
       <use xlink:href="#DejaVuSans-2e" x="95.410156"/>
       <use xlink:href="#DejaVuSans-36" x="127.197266"/>
      </g>
     </g>
    </g>
    <g id="xtick_21">
     <g id="line2d_23">
      <g>
       <use xlink:href="#m2b9ebdd63e" x="366.105855" y="593.048" style="stroke: #000000; stroke-width: 0.8"/>
      </g>
     </g>
     <g id="text_35">
      <!-- rb  -->
      <g transform="translate(357.923355 609.166125) scale(0.12 -0.12)">
       <use xlink:href="#DejaVuSans-72"/>
       <use xlink:href="#DejaVuSans-62" x="41.113281"/>
       <use xlink:href="#DejaVuSans-20" x="104.589844"/>
      </g>
      <!--  0.6 -->
      <g transform="translate(354.657105 622.6035) scale(0.12 -0.12)">
       <use xlink:href="#DejaVuSans-20"/>
       <use xlink:href="#DejaVuSans-30" x="31.787109"/>
       <use xlink:href="#DejaVuSans-2e" x="95.410156"/>
       <use xlink:href="#DejaVuSans-36" x="127.197266"/>
      </g>
     </g>
    </g>
    <g id="xtick_22">
     <g id="line2d_24">
      <g>
       <use xlink:href="#m2b9ebdd63e" x="405.628197" y="593.048" style="stroke: #000000; stroke-width: 0.8"/>
      </g>
     </g>
     <g id="text_36">
      <!-- rw  -->
      <g transform="translate(396.347885 609.166125) scale(0.12 -0.12)">
       <use xlink:href="#DejaVuSans-72"/>
       <use xlink:href="#DejaVuSans-77" x="41.113281"/>
       <use xlink:href="#DejaVuSans-20" x="122.900391"/>
      </g>
      <!--  0.6 -->
      <g transform="translate(394.179447 622.6035) scale(0.12 -0.12)">
       <use xlink:href="#DejaVuSans-20"/>
       <use xlink:href="#DejaVuSans-30" x="31.787109"/>
       <use xlink:href="#DejaVuSans-2e" x="95.410156"/>
       <use xlink:href="#DejaVuSans-36" x="127.197266"/>
      </g>
     </g>
    </g>
    <g id="xtick_23">
     <g id="line2d_25">
      <g>
       <use xlink:href="#m2b9ebdd63e" x="445.150539" y="593.048" style="stroke: #000000; stroke-width: 0.8"/>
      </g>
     </g>
     <g id="text_37">
      <!-- Lag -->
      <g transform="translate(434.321477 609.166125) scale(0.12 -0.12)">
       <defs>
        <path id="DejaVuSans-4c" d="M 628 4666 
L 1259 4666 
L 1259 531 
L 3531 531 
L 3531 0 
L 628 0 
L 628 4666 
z
" transform="scale(0.015625)"/>
        <path id="DejaVuSans-67" d="M 2906 1791 
Q 2906 2416 2648 2759 
Q 2391 3103 1925 3103 
Q 1463 3103 1205 2759 
Q 947 2416 947 1791 
Q 947 1169 1205 825 
Q 1463 481 1925 481 
Q 2391 481 2648 825 
Q 2906 1169 2906 1791 
z
M 3481 434 
Q 3481 -459 3084 -895 
Q 2688 -1331 1869 -1331 
Q 1566 -1331 1297 -1286 
Q 1028 -1241 775 -1147 
L 775 -588 
Q 1028 -725 1275 -790 
Q 1522 -856 1778 -856 
Q 2344 -856 2625 -561 
Q 2906 -266 2906 331 
L 2906 616 
Q 2728 306 2450 153 
Q 2172 0 1784 0 
Q 1141 0 747 490 
Q 353 981 353 1791 
Q 353 2603 747 3093 
Q 1141 3584 1784 3584 
Q 2172 3584 2450 3431 
Q 2728 3278 2906 2969 
L 2906 3500 
L 3481 3500 
L 3481 434 
z
" transform="scale(0.015625)"/>
       </defs>
       <use xlink:href="#DejaVuSans-4c"/>
       <use xlink:href="#DejaVuSans-61" x="55.712891"/>
       <use xlink:href="#DejaVuSans-67" x="116.992188"/>
      </g>
      <!--  feas  -->
      <g transform="translate(428.730227 622.6035) scale(0.12 -0.12)">
       <use xlink:href="#DejaVuSans-20"/>
       <use xlink:href="#DejaVuSans-66" x="31.787109"/>
       <use xlink:href="#DejaVuSans-65" x="66.992188"/>
       <use xlink:href="#DejaVuSans-61" x="128.515625"/>
       <use xlink:href="#DejaVuSans-73" x="189.794922"/>
       <use xlink:href="#DejaVuSans-20" x="241.894531"/>
      </g>
     </g>
    </g>
    <g id="xtick_24">
     <g id="line2d_26">
      <g>
       <use xlink:href="#m2b9ebdd63e" x="484.672881" y="593.048" style="stroke: #000000; stroke-width: 0.8"/>
      </g>
     </g>
     <g id="text_38">
      <!-- Lag  -->
      <g transform="translate(471.936944 609.166125) scale(0.12 -0.12)">
       <use xlink:href="#DejaVuSans-4c"/>
       <use xlink:href="#DejaVuSans-61" x="55.712891"/>
       <use xlink:href="#DejaVuSans-67" x="116.992188"/>
       <use xlink:href="#DejaVuSans-20" x="180.46875"/>
      </g>
      <!--  gap -->
      <g transform="translate(471.471006 622.6035) scale(0.12 -0.12)">
       <defs>
        <path id="DejaVuSans-70" d="M 1159 525 
L 1159 -1331 
L 581 -1331 
L 581 3500 
L 1159 3500 
L 1159 2969 
Q 1341 3281 1617 3432 
Q 1894 3584 2278 3584 
Q 2916 3584 3314 3078 
Q 3713 2572 3713 1747 
Q 3713 922 3314 415 
Q 2916 -91 2278 -91 
Q 1894 -91 1617 61 
Q 1341 213 1159 525 
z
M 3116 1747 
Q 3116 2381 2855 2742 
Q 2594 3103 2138 3103 
Q 1681 3103 1420 2742 
Q 1159 2381 1159 1747 
Q 1159 1113 1420 752 
Q 1681 391 2138 391 
Q 2594 391 2855 752 
Q 3116 1113 3116 1747 
z
" transform="scale(0.015625)"/>
       </defs>
       <use xlink:href="#DejaVuSans-20"/>
       <use xlink:href="#DejaVuSans-67" x="31.787109"/>
       <use xlink:href="#DejaVuSans-61" x="95.263672"/>
       <use xlink:href="#DejaVuSans-70" x="156.542969"/>
      </g>
     </g>
    </g>
   </g>
   <g id="matplotlib.axis_6"/>
   <g id="line2d_27">
    <path d="M 10.8 590.823997 
L 523.8 590.823997 
" clip-path="url(#pfc11bb9ca6)" style="fill: none; stroke-dasharray: 5.55,2.4; stroke-dashoffset: 0; stroke: #000000; stroke-width: 1.5"/>
   </g>
   <g id="patch_49">
    <path d="M 10.8 593.048 
L 10.8 325.784 
" style="fill: none; stroke: #000000; stroke-width: 0.8; stroke-linejoin: miter; stroke-linecap: square"/>
   </g>
   <g id="patch_50">
    <path d="M 523.8 593.048 
L 523.8 325.784 
" style="fill: none; stroke: #000000; stroke-width: 0.8; stroke-linejoin: miter; stroke-linecap: square"/>
   </g>
   <g id="patch_51">
    <path d="M 10.8 593.048 
L 523.8 593.048 
" style="fill: none; stroke: #000000; stroke-width: 0.8; stroke-linejoin: miter; stroke-linecap: square"/>
   </g>
   <g id="patch_52">
    <path d="M 10.8 325.784 
L 523.8 325.784 
" style="fill: none; stroke: #000000; stroke-width: 0.8; stroke-linejoin: miter; stroke-linecap: square"/>
   </g>
   <g id="text_39">
    <!-- 0 -->
    <g transform="translate(46.109619 590.379196) scale(0.12 -0.12)">
     <use xlink:href="#DejaVuSans-30"/>
    </g>
   </g>
   <g id="text_40">
    <!-- 0 -->
    <g transform="translate(85.631961 590.379196) scale(0.12 -0.12)">
     <use xlink:href="#DejaVuSans-30"/>
    </g>
   </g>
   <g id="text_41">
    <!-- 0 -->
    <g transform="translate(125.154303 590.379196) scale(0.12 -0.12)">
     <use xlink:href="#DejaVuSans-30"/>
    </g>
   </g>
   <g id="text_42">
    <!-- 0 -->
    <g transform="translate(164.676645 590.379196) scale(0.12 -0.12)">
     <use xlink:href="#DejaVuSans-30"/>
    </g>
   </g>
   <g id="text_43">
    <!-- 0 -->
    <g transform="translate(204.198987 590.379196) scale(0.12 -0.12)">
     <use xlink:href="#DejaVuSans-30"/>
    </g>
   </g>
   <g id="text_44">
    <!-- 0 -->
    <g transform="translate(243.721329 590.379196) scale(0.12 -0.12)">
     <use xlink:href="#DejaVuSans-30"/>
    </g>
   </g>
   <g id="text_45">
    <!-- 0 -->
    <g transform="translate(283.243671 590.379196) scale(0.12 -0.12)">
     <use xlink:href="#DejaVuSans-30"/>
    </g>
   </g>
   <g id="text_46">
    <!-- 0 -->
    <g transform="translate(322.766013 590.379196) scale(0.12 -0.12)">
     <use xlink:href="#DejaVuSans-30"/>
    </g>
   </g>
   <g id="text_47">
    <!-- 0 -->
    <g transform="translate(362.288355 590.379196) scale(0.12 -0.12)">
     <use xlink:href="#DejaVuSans-30"/>
    </g>
   </g>
   <g id="text_48">
    <!-- 0 -->
    <g transform="translate(401.810697 590.379196) scale(0.12 -0.12)">
     <use xlink:href="#DejaVuSans-30"/>
    </g>
   </g>
   <g id="text_49">
    <!-- 25.4 -->
    <g transform="translate(431.791164 590.379196) scale(0.12 -0.12)">
     <defs>
      <path id="DejaVuSans-35" d="M 691 4666 
L 3169 4666 
L 3169 4134 
L 1269 4134 
L 1269 2991 
Q 1406 3038 1543 3061 
Q 1681 3084 1819 3084 
Q 2600 3084 3056 2656 
Q 3513 2228 3513 1497 
Q 3513 744 3044 326 
Q 2575 -91 1722 -91 
Q 1428 -91 1123 -41 
Q 819 9 494 109 
L 494 744 
Q 775 591 1075 516 
Q 1375 441 1709 441 
Q 2250 441 2565 725 
Q 2881 1009 2881 1497 
Q 2881 1984 2565 2268 
Q 2250 2553 1709 2553 
Q 1456 2553 1204 2497 
Q 953 2441 691 2322 
L 691 4666 
z
" transform="scale(0.015625)"/>
     </defs>
     <use xlink:href="#DejaVuSans-32"/>
     <use xlink:href="#DejaVuSans-35" x="63.623047"/>
     <use xlink:href="#DejaVuSans-2e" x="127.246094"/>
     <use xlink:href="#DejaVuSans-34" x="159.033203"/>
    </g>
   </g>
   <g id="text_50">
    <!-- 114.4 -->
    <g transform="translate(467.496006 590.379196) scale(0.12 -0.12)">
     <use xlink:href="#DejaVuSans-31"/>
     <use xlink:href="#DejaVuSans-31" x="63.623047"/>
     <use xlink:href="#DejaVuSans-34" x="127.246094"/>
     <use xlink:href="#DejaVuSans-2e" x="190.869141"/>
     <use xlink:href="#DejaVuSans-34" x="222.65625"/>
    </g>
   </g>
   <g id="text_51">
    <!-- BWKS_medium_september -->
    <g transform="translate(173.130312 319.784) scale(0.14 -0.14)">
     <defs>
      <path id="DejaVuSans-6d" d="M 3328 2828 
Q 3544 3216 3844 3400 
Q 4144 3584 4550 3584 
Q 5097 3584 5394 3201 
Q 5691 2819 5691 2113 
L 5691 0 
L 5113 0 
L 5113 2094 
Q 5113 2597 4934 2840 
Q 4756 3084 4391 3084 
Q 3944 3084 3684 2787 
Q 3425 2491 3425 1978 
L 3425 0 
L 2847 0 
L 2847 2094 
Q 2847 2600 2669 2842 
Q 2491 3084 2119 3084 
Q 1678 3084 1418 2786 
Q 1159 2488 1159 1978 
L 1159 0 
L 581 0 
L 581 3500 
L 1159 3500 
L 1159 2956 
Q 1356 3278 1631 3431 
Q 1906 3584 2284 3584 
Q 2666 3584 2933 3390 
Q 3200 3197 3328 2828 
z
" transform="scale(0.015625)"/>
      <path id="DejaVuSans-64" d="M 2906 2969 
L 2906 4863 
L 3481 4863 
L 3481 0 
L 2906 0 
L 2906 525 
Q 2725 213 2448 61 
Q 2172 -91 1784 -91 
Q 1150 -91 751 415 
Q 353 922 353 1747 
Q 353 2572 751 3078 
Q 1150 3584 1784 3584 
Q 2172 3584 2448 3432 
Q 2725 3281 2906 2969 
z
M 947 1747 
Q 947 1113 1208 752 
Q 1469 391 1925 391 
Q 2381 391 2643 752 
Q 2906 1113 2906 1747 
Q 2906 2381 2643 2742 
Q 2381 3103 1925 3103 
Q 1469 3103 1208 2742 
Q 947 2381 947 1747 
z
" transform="scale(0.015625)"/>
      <path id="DejaVuSans-75" d="M 544 1381 
L 544 3500 
L 1119 3500 
L 1119 1403 
Q 1119 906 1312 657 
Q 1506 409 1894 409 
Q 2359 409 2629 706 
Q 2900 1003 2900 1516 
L 2900 3500 
L 3475 3500 
L 3475 0 
L 2900 0 
L 2900 538 
Q 2691 219 2414 64 
Q 2138 -91 1772 -91 
Q 1169 -91 856 284 
Q 544 659 544 1381 
z
M 1991 3584 
L 1991 3584 
z
" transform="scale(0.015625)"/>
      <path id="DejaVuSans-74" d="M 1172 4494 
L 1172 3500 
L 2356 3500 
L 2356 3053 
L 1172 3053 
L 1172 1153 
Q 1172 725 1289 603 
Q 1406 481 1766 481 
L 2356 481 
L 2356 0 
L 1766 0 
Q 1100 0 847 248 
Q 594 497 594 1153 
L 594 3053 
L 172 3053 
L 172 3500 
L 594 3500 
L 594 4494 
L 1172 4494 
z
" transform="scale(0.015625)"/>
     </defs>
     <use xlink:href="#DejaVuSans-42"/>
     <use xlink:href="#DejaVuSans-57" x="64.978516"/>
     <use xlink:href="#DejaVuSans-4b" x="163.855469"/>
     <use xlink:href="#DejaVuSans-53" x="229.431641"/>
     <use xlink:href="#DejaVuSans-5f" x="292.908203"/>
     <use xlink:href="#DejaVuSans-6d" x="342.908203"/>
     <use xlink:href="#DejaVuSans-65" x="440.320312"/>
     <use xlink:href="#DejaVuSans-64" x="501.84375"/>
     <use xlink:href="#DejaVuSans-69" x="565.320312"/>
     <use xlink:href="#DejaVuSans-75" x="593.103516"/>
     <use xlink:href="#DejaVuSans-6d" x="656.482422"/>
     <use xlink:href="#DejaVuSans-5f" x="753.894531"/>
     <use xlink:href="#DejaVuSans-73" x="803.894531"/>
     <use xlink:href="#DejaVuSans-65" x="855.994141"/>
     <use xlink:href="#DejaVuSans-70" x="917.517578"/>
     <use xlink:href="#DejaVuSans-74" x="980.994141"/>
     <use xlink:href="#DejaVuSans-65" x="1020.203125"/>
     <use xlink:href="#DejaVuSans-6d" x="1081.726562"/>
     <use xlink:href="#DejaVuSans-62" x="1179.138672"/>
     <use xlink:href="#DejaVuSans-65" x="1242.615234"/>
     <use xlink:href="#DejaVuSans-72" x="1304.138672"/>
    </g>
   </g>
  </g>
  <g id="axes_4">
   <g id="patch_53">
    <path d="M 534.6 593.048 
L 1047.6 593.048 
L 1047.6 325.784 
L 534.6 325.784 
z
" style="fill: #ffffff"/>
   </g>
   <g id="patch_54">
    <path d="M 557.918182 593.048 
L 589.536055 593.048 
L 589.536055 572.310761 
L 557.918182 572.310761 
z
" clip-path="url(#pa9e7f2ecd4)" style="fill: #1f77b4"/>
   </g>
   <g id="patch_55">
    <path d="M 597.440524 593.048 
L 629.058398 593.048 
L 629.058398 586.135587 
L 597.440524 586.135587 
z
" clip-path="url(#pa9e7f2ecd4)" style="fill: #ff7f0e"/>
   </g>
   <g id="patch_56">
    <path d="M 636.962866 593.048 
L 668.58074 593.048 
L 668.58074 593.048 
L 636.962866 593.048 
z
" clip-path="url(#pa9e7f2ecd4)" style="fill: #cd853f"/>
   </g>
   <g id="patch_57">
    <path d="M 676.485208 593.048 
L 708.103082 593.048 
L 708.103082 593.048 
L 676.485208 593.048 
z
" clip-path="url(#pa9e7f2ecd4)" style="fill: #d2691e"/>
   </g>
   <g id="patch_58">
    <path d="M 716.00755 593.048 
L 747.625424 593.048 
L 747.625424 593.048 
L 716.00755 593.048 
z
" clip-path="url(#pa9e7f2ecd4)" style="fill: #f4a460"/>
   </g>
   <g id="patch_59">
    <path d="M 755.529892 593.048 
L 787.147766 593.048 
L 787.147766 570.006623 
L 755.529892 570.006623 
z
" clip-path="url(#pa9e7f2ecd4)" style="fill: #deb887"/>
   </g>
   <g id="patch_60">
    <path d="M 795.052234 593.048 
L 826.670108 593.048 
L 826.670108 570.006623 
L 795.052234 570.006623 
z
" clip-path="url(#pa9e7f2ecd4)" style="fill: #90ee90"/>
   </g>
   <g id="patch_61">
    <path d="M 834.574576 593.048 
L 866.19245 593.048 
L 866.19245 593.048 
L 834.574576 593.048 
z
" clip-path="url(#pa9e7f2ecd4)" style="fill: #32cd32"/>
   </g>
   <g id="patch_62">
    <path d="M 874.096918 593.048 
L 905.714792 593.048 
L 905.714792 593.048 
L 874.096918 593.048 
z
" clip-path="url(#pa9e7f2ecd4)" style="fill: #98fb98"/>
   </g>
   <g id="patch_63">
    <path d="M 913.61926 593.048 
L 945.237134 593.048 
L 945.237134 576.919036 
L 913.61926 576.919036 
z
" clip-path="url(#pa9e7f2ecd4)" style="fill: #228b22"/>
   </g>
   <g id="patch_64">
    <path d="M 953.141602 593.048 
L 984.759476 593.048 
L 984.759476 338.510857 
L 953.141602 338.510857 
z
" clip-path="url(#pa9e7f2ecd4)" style="fill: #f08080"/>
   </g>
   <g id="patch_65">
    <path d="M 992.663945 593.048 
L 1024.281818 593.048 
L 1024.281818 399.938218 
L 992.663945 399.938218 
z
" clip-path="url(#pa9e7f2ecd4)" style="fill: #cd5c5c"/>
   </g>
   <g id="matplotlib.axis_7">
    <g id="xtick_25">
     <g id="line2d_28">
      <g>
       <use xlink:href="#m2b9ebdd63e" x="573.727119" y="593.048" style="stroke: #000000; stroke-width: 0.8"/>
      </g>
     </g>
     <g id="text_52">
      <!-- ineq -->
      <g transform="translate(560.756806 609.166125) scale(0.12 -0.12)">
       <use xlink:href="#DejaVuSans-69"/>
       <use xlink:href="#DejaVuSans-6e" x="27.783203"/>
       <use xlink:href="#DejaVuSans-65" x="91.162109"/>
       <use xlink:href="#DejaVuSans-71" x="152.685547"/>
      </g>
     </g>
    </g>
    <g id="xtick_26">
     <g id="line2d_29">
      <g>
       <use xlink:href="#m2b9ebdd63e" x="613.249461" y="593.048" style="stroke: #000000; stroke-width: 0.8"/>
      </g>
     </g>
     <g id="text_53">
      <!-- RENS -->
      <g transform="translate(596.991336 609.166125) scale(0.12 -0.12)">
       <use xlink:href="#DejaVuSans-52"/>
       <use xlink:href="#DejaVuSans-45" x="69.482422"/>
       <use xlink:href="#DejaVuSans-4e" x="132.666016"/>
       <use xlink:href="#DejaVuSans-53" x="207.470703"/>
      </g>
     </g>
    </g>
    <g id="xtick_27">
     <g id="line2d_30">
      <g>
       <use xlink:href="#m2b9ebdd63e" x="652.771803" y="593.048" style="stroke: #000000; stroke-width: 0.8"/>
      </g>
     </g>
     <g id="text_54">
      <!-- sheaf  -->
      <g transform="translate(634.455865 609.166125) scale(0.12 -0.12)">
       <use xlink:href="#DejaVuSans-73"/>
       <use xlink:href="#DejaVuSans-68" x="52.099609"/>
       <use xlink:href="#DejaVuSans-65" x="115.478516"/>
       <use xlink:href="#DejaVuSans-61" x="177.001953"/>
       <use xlink:href="#DejaVuSans-66" x="238.28125"/>
       <use xlink:href="#DejaVuSans-20" x="273.486328"/>
      </g>
      <!--  0.9 -->
      <g transform="translate(641.323053 622.6035) scale(0.12 -0.12)">
       <use xlink:href="#DejaVuSans-20"/>
       <use xlink:href="#DejaVuSans-30" x="31.787109"/>
       <use xlink:href="#DejaVuSans-2e" x="95.410156"/>
       <use xlink:href="#DejaVuSans-39" x="127.197266"/>
      </g>
     </g>
    </g>
    <g id="xtick_28">
     <g id="line2d_31">
      <g>
       <use xlink:href="#m2b9ebdd63e" x="692.294145" y="593.048" style="stroke: #000000; stroke-width: 0.8"/>
      </g>
     </g>
     <g id="text_55">
      <!-- slack  -->
      <g transform="translate(675.144457 609.166125) scale(0.12 -0.12)">
       <use xlink:href="#DejaVuSans-73"/>
       <use xlink:href="#DejaVuSans-6c" x="52.099609"/>
       <use xlink:href="#DejaVuSans-61" x="79.882812"/>
       <use xlink:href="#DejaVuSans-63" x="141.162109"/>
       <use xlink:href="#DejaVuSans-6b" x="196.142578"/>
       <use xlink:href="#DejaVuSans-20" x="254.052734"/>
      </g>
      <!--  0.9 -->
      <g transform="translate(680.845395 622.6035) scale(0.12 -0.12)">
       <use xlink:href="#DejaVuSans-20"/>
       <use xlink:href="#DejaVuSans-30" x="31.787109"/>
       <use xlink:href="#DejaVuSans-2e" x="95.410156"/>
       <use xlink:href="#DejaVuSans-39" x="127.197266"/>
      </g>
     </g>
    </g>
    <g id="xtick_29">
     <g id="line2d_32">
      <g>
       <use xlink:href="#m2b9ebdd63e" x="731.816487" y="593.048" style="stroke: #000000; stroke-width: 0.8"/>
      </g>
     </g>
     <g id="text_56">
      <!-- rb -->
      <g transform="translate(725.540862 609.166125) scale(0.12 -0.12)">
       <use xlink:href="#DejaVuSans-72"/>
       <use xlink:href="#DejaVuSans-62" x="41.113281"/>
      </g>
      <!--  0.9 -->
      <g transform="translate(720.367737 622.6035) scale(0.12 -0.12)">
       <use xlink:href="#DejaVuSans-20"/>
       <use xlink:href="#DejaVuSans-30" x="31.787109"/>
       <use xlink:href="#DejaVuSans-2e" x="95.410156"/>
       <use xlink:href="#DejaVuSans-39" x="127.197266"/>
      </g>
     </g>
    </g>
    <g id="xtick_30">
     <g id="line2d_33">
      <g>
       <use xlink:href="#m2b9ebdd63e" x="771.338829" y="593.048" style="stroke: #000000; stroke-width: 0.8"/>
      </g>
     </g>
     <g id="text_57">
      <!-- rw  -->
      <g transform="translate(762.058516 609.166125) scale(0.12 -0.12)">
       <use xlink:href="#DejaVuSans-72"/>
       <use xlink:href="#DejaVuSans-77" x="41.113281"/>
       <use xlink:href="#DejaVuSans-20" x="122.900391"/>
      </g>
      <!--  0.9 -->
      <g transform="translate(759.890079 622.6035) scale(0.12 -0.12)">
       <use xlink:href="#DejaVuSans-20"/>
       <use xlink:href="#DejaVuSans-30" x="31.787109"/>
       <use xlink:href="#DejaVuSans-2e" x="95.410156"/>
       <use xlink:href="#DejaVuSans-39" x="127.197266"/>
      </g>
     </g>
    </g>
    <g id="xtick_31">
     <g id="line2d_34">
      <g>
       <use xlink:href="#m2b9ebdd63e" x="810.861171" y="593.048" style="stroke: #000000; stroke-width: 0.8"/>
      </g>
     </g>
     <g id="text_58">
      <!-- sheaf  -->
      <g transform="translate(792.545234 609.166125) scale(0.12 -0.12)">
       <use xlink:href="#DejaVuSans-73"/>
       <use xlink:href="#DejaVuSans-68" x="52.099609"/>
       <use xlink:href="#DejaVuSans-65" x="115.478516"/>
       <use xlink:href="#DejaVuSans-61" x="177.001953"/>
       <use xlink:href="#DejaVuSans-66" x="238.28125"/>
       <use xlink:href="#DejaVuSans-20" x="273.486328"/>
      </g>
      <!--  0.6 -->
      <g transform="translate(799.412421 622.6035) scale(0.12 -0.12)">
       <use xlink:href="#DejaVuSans-20"/>
       <use xlink:href="#DejaVuSans-30" x="31.787109"/>
       <use xlink:href="#DejaVuSans-2e" x="95.410156"/>
       <use xlink:href="#DejaVuSans-36" x="127.197266"/>
      </g>
     </g>
    </g>
    <g id="xtick_32">
     <g id="line2d_35">
      <g>
       <use xlink:href="#m2b9ebdd63e" x="850.383513" y="593.048" style="stroke: #000000; stroke-width: 0.8"/>
      </g>
     </g>
     <g id="text_59">
      <!-- slack  -->
      <g transform="translate(833.233826 609.166125) scale(0.12 -0.12)">
       <use xlink:href="#DejaVuSans-73"/>
       <use xlink:href="#DejaVuSans-6c" x="52.099609"/>
       <use xlink:href="#DejaVuSans-61" x="79.882812"/>
       <use xlink:href="#DejaVuSans-63" x="141.162109"/>
       <use xlink:href="#DejaVuSans-6b" x="196.142578"/>
       <use xlink:href="#DejaVuSans-20" x="254.052734"/>
      </g>
      <!--  0.6 -->
      <g transform="translate(838.934763 622.6035) scale(0.12 -0.12)">
       <use xlink:href="#DejaVuSans-20"/>
       <use xlink:href="#DejaVuSans-30" x="31.787109"/>
       <use xlink:href="#DejaVuSans-2e" x="95.410156"/>
       <use xlink:href="#DejaVuSans-36" x="127.197266"/>
      </g>
     </g>
    </g>
    <g id="xtick_33">
     <g id="line2d_36">
      <g>
       <use xlink:href="#m2b9ebdd63e" x="889.905855" y="593.048" style="stroke: #000000; stroke-width: 0.8"/>
      </g>
     </g>
     <g id="text_60">
      <!-- rb  -->
      <g transform="translate(881.723355 609.166125) scale(0.12 -0.12)">
       <use xlink:href="#DejaVuSans-72"/>
       <use xlink:href="#DejaVuSans-62" x="41.113281"/>
       <use xlink:href="#DejaVuSans-20" x="104.589844"/>
      </g>
      <!--  0.6 -->
      <g transform="translate(878.457105 622.6035) scale(0.12 -0.12)">
       <use xlink:href="#DejaVuSans-20"/>
       <use xlink:href="#DejaVuSans-30" x="31.787109"/>
       <use xlink:href="#DejaVuSans-2e" x="95.410156"/>
       <use xlink:href="#DejaVuSans-36" x="127.197266"/>
      </g>
     </g>
    </g>
    <g id="xtick_34">
     <g id="line2d_37">
      <g>
       <use xlink:href="#m2b9ebdd63e" x="929.428197" y="593.048" style="stroke: #000000; stroke-width: 0.8"/>
      </g>
     </g>
     <g id="text_61">
      <!-- rw  -->
      <g transform="translate(920.147885 609.166125) scale(0.12 -0.12)">
       <use xlink:href="#DejaVuSans-72"/>
       <use xlink:href="#DejaVuSans-77" x="41.113281"/>
       <use xlink:href="#DejaVuSans-20" x="122.900391"/>
      </g>
      <!--  0.6 -->
      <g transform="translate(917.979447 622.6035) scale(0.12 -0.12)">
       <use xlink:href="#DejaVuSans-20"/>
       <use xlink:href="#DejaVuSans-30" x="31.787109"/>
       <use xlink:href="#DejaVuSans-2e" x="95.410156"/>
       <use xlink:href="#DejaVuSans-36" x="127.197266"/>
      </g>
     </g>
    </g>
    <g id="xtick_35">
     <g id="line2d_38">
      <g>
       <use xlink:href="#m2b9ebdd63e" x="968.950539" y="593.048" style="stroke: #000000; stroke-width: 0.8"/>
      </g>
     </g>
     <g id="text_62">
      <!-- Lag -->
      <g transform="translate(958.121477 609.166125) scale(0.12 -0.12)">
       <use xlink:href="#DejaVuSans-4c"/>
       <use xlink:href="#DejaVuSans-61" x="55.712891"/>
       <use xlink:href="#DejaVuSans-67" x="116.992188"/>
      </g>
      <!--  feas  -->
      <g transform="translate(952.530227 622.6035) scale(0.12 -0.12)">
       <use xlink:href="#DejaVuSans-20"/>
       <use xlink:href="#DejaVuSans-66" x="31.787109"/>
       <use xlink:href="#DejaVuSans-65" x="66.992188"/>
       <use xlink:href="#DejaVuSans-61" x="128.515625"/>
       <use xlink:href="#DejaVuSans-73" x="189.794922"/>
       <use xlink:href="#DejaVuSans-20" x="241.894531"/>
      </g>
     </g>
    </g>
    <g id="xtick_36">
     <g id="line2d_39">
      <g>
       <use xlink:href="#m2b9ebdd63e" x="1008.472881" y="593.048" style="stroke: #000000; stroke-width: 0.8"/>
      </g>
     </g>
     <g id="text_63">
      <!-- Lag  -->
      <g transform="translate(995.736944 609.166125) scale(0.12 -0.12)">
       <use xlink:href="#DejaVuSans-4c"/>
       <use xlink:href="#DejaVuSans-61" x="55.712891"/>
       <use xlink:href="#DejaVuSans-67" x="116.992188"/>
       <use xlink:href="#DejaVuSans-20" x="180.46875"/>
      </g>
      <!--  gap -->
      <g transform="translate(995.271006 622.6035) scale(0.12 -0.12)">
       <use xlink:href="#DejaVuSans-20"/>
       <use xlink:href="#DejaVuSans-67" x="31.787109"/>
       <use xlink:href="#DejaVuSans-61" x="95.263672"/>
       <use xlink:href="#DejaVuSans-70" x="156.542969"/>
      </g>
     </g>
    </g>
   </g>
   <g id="matplotlib.axis_8"/>
   <g id="line2d_40">
    <path d="M 534.6 572.310761 
L 1047.6 572.310761 
" clip-path="url(#pa9e7f2ecd4)" style="fill: none; stroke-dasharray: 5.55,2.4; stroke-dashoffset: 0; stroke: #000000; stroke-width: 1.5"/>
   </g>
   <g id="patch_66">
    <path d="M 534.6 593.048 
L 534.6 325.784 
" style="fill: none; stroke: #000000; stroke-width: 0.8; stroke-linejoin: miter; stroke-linecap: square"/>
   </g>
   <g id="patch_67">
    <path d="M 1047.6 593.048 
L 1047.6 325.784 
" style="fill: none; stroke: #000000; stroke-width: 0.8; stroke-linejoin: miter; stroke-linecap: square"/>
   </g>
   <g id="patch_68">
    <path d="M 534.6 593.048 
L 1047.6 593.048 
" style="fill: none; stroke: #000000; stroke-width: 0.8; stroke-linejoin: miter; stroke-linecap: square"/>
   </g>
   <g id="patch_69">
    <path d="M 534.6 325.784 
L 1047.6 325.784 
" style="fill: none; stroke: #000000; stroke-width: 0.8; stroke-linejoin: miter; stroke-linecap: square"/>
   </g>
   <g id="text_64">
    <!-- 1.0 -->
    <g transform="translate(564.185244 568.163313) scale(0.12 -0.12)">
     <use xlink:href="#DejaVuSans-31"/>
     <use xlink:href="#DejaVuSans-2e" x="63.623047"/>
     <use xlink:href="#DejaVuSans-30" x="95.410156"/>
    </g>
   </g>
   <g id="text_65">
    <!-- 0.3 -->
    <g transform="translate(603.707586 568.163313) scale(0.12 -0.12)">
     <use xlink:href="#DejaVuSans-30"/>
     <use xlink:href="#DejaVuSans-2e" x="63.623047"/>
     <use xlink:href="#DejaVuSans-33" x="95.410156"/>
    </g>
   </g>
   <g id="text_66">
    <!-- 0 -->
    <g transform="translate(648.954303 568.163313) scale(0.12 -0.12)">
     <use xlink:href="#DejaVuSans-30"/>
    </g>
   </g>
   <g id="text_67">
    <!-- 0 -->
    <g transform="translate(688.476645 568.163313) scale(0.12 -0.12)">
     <use xlink:href="#DejaVuSans-30"/>
    </g>
   </g>
   <g id="text_68">
    <!-- 0 -->
    <g transform="translate(727.998987 568.163313) scale(0.12 -0.12)">
     <use xlink:href="#DejaVuSans-30"/>
    </g>
   </g>
   <g id="text_69">
    <!-- 1.1 -->
    <g transform="translate(761.796954 568.163313) scale(0.12 -0.12)">
     <use xlink:href="#DejaVuSans-31"/>
     <use xlink:href="#DejaVuSans-2e" x="63.623047"/>
     <use xlink:href="#DejaVuSans-31" x="95.410156"/>
    </g>
   </g>
   <g id="text_70">
    <!-- 1.1 -->
    <g transform="translate(801.319296 568.163313) scale(0.12 -0.12)">
     <use xlink:href="#DejaVuSans-31"/>
     <use xlink:href="#DejaVuSans-2e" x="63.623047"/>
     <use xlink:href="#DejaVuSans-31" x="95.410156"/>
    </g>
   </g>
   <g id="text_71">
    <!-- 0 -->
    <g transform="translate(846.566013 568.163313) scale(0.12 -0.12)">
     <use xlink:href="#DejaVuSans-30"/>
    </g>
   </g>
   <g id="text_72">
    <!-- 0 -->
    <g transform="translate(886.088355 568.163313) scale(0.12 -0.12)">
     <use xlink:href="#DejaVuSans-30"/>
    </g>
   </g>
   <g id="text_73">
    <!-- 0.8 -->
    <g transform="translate(919.886322 568.163313) scale(0.12 -0.12)">
     <use xlink:href="#DejaVuSans-30"/>
     <use xlink:href="#DejaVuSans-2e" x="63.623047"/>
     <use xlink:href="#DejaVuSans-38" x="95.410156"/>
    </g>
   </g>
   <g id="text_74">
    <!-- 27.6 -->
    <g transform="translate(955.591164 568.163313) scale(0.12 -0.12)">
     <defs>
      <path id="DejaVuSans-37" d="M 525 4666 
L 3525 4666 
L 3525 4397 
L 1831 0 
L 1172 0 
L 2766 4134 
L 525 4134 
L 525 4666 
z
" transform="scale(0.015625)"/>
     </defs>
     <use xlink:href="#DejaVuSans-32"/>
     <use xlink:href="#DejaVuSans-37" x="63.623047"/>
     <use xlink:href="#DejaVuSans-2e" x="127.246094"/>
     <use xlink:href="#DejaVuSans-36" x="159.033203"/>
    </g>
   </g>
   <g id="text_75">
    <!-- 9.3 -->
    <g transform="translate(998.931006 568.163313) scale(0.12 -0.12)">
     <use xlink:href="#DejaVuSans-39"/>
     <use xlink:href="#DejaVuSans-2e" x="63.623047"/>
     <use xlink:href="#DejaVuSans-33" x="95.410156"/>
    </g>
   </g>
   <g id="text_76">
    <!-- BBKS_BWT -->
    <g transform="translate(753.214687 319.784) scale(0.14 -0.14)">
     <use xlink:href="#DejaVuSans-42"/>
     <use xlink:href="#DejaVuSans-42" x="68.603516"/>
     <use xlink:href="#DejaVuSans-4b" x="137.207031"/>
     <use xlink:href="#DejaVuSans-53" x="202.783203"/>
     <use xlink:href="#DejaVuSans-5f" x="266.259766"/>
     <use xlink:href="#DejaVuSans-42" x="316.259766"/>
     <use xlink:href="#DejaVuSans-57" x="381.238281"/>
     <use xlink:href="#DejaVuSans-54" x="480.115234"/>
    </g>
   </g>
  </g>
 </g>
 <defs>
  <clipPath id="p5425bb0f40">
   <rect x="10.8" y="27.42" width="513" height="267.264"/>
  </clipPath>
  <clipPath id="pb24f31781d">
   <rect x="534.6" y="27.42" width="513" height="267.264"/>
  </clipPath>
  <clipPath id="pfc11bb9ca6">
   <rect x="10.8" y="325.784" width="513" height="267.264"/>
  </clipPath>
  <clipPath id="pa9e7f2ecd4">
   <rect x="534.6" y="325.784" width="513" height="267.264"/>
  </clipPath>
 </defs>
</svg>
